<svg viewBox="0 0 20 20" fill="currentColor" xmlns="http://www.w3.org/2000/svg">
	<path d="M16.4291 10.3284C16.2548 10.3284 16.0991 10.2305 16.0227 10.0739C15.9462 9.91728 15.9658 9.73457 16.074 9.59754C16.2362 9.39059 16.3928 9.18365 16.5382 8.98229L16.5401 8.98043C16.6295 8.86111 16.7554 8.79492 16.8962 8.79492C17.0667 8.79492 17.2289 8.89373 17.3091 9.04755C17.3856 9.1939 17.3725 9.36636 17.2728 9.50898L17.2709 9.51178C17.1227 9.7178 16.9633 9.92754 16.7852 10.155C16.6985 10.265 16.569 10.3284 16.4291 10.3284Z">
	</path>
	<path d="M9.41758 15.7065C9.29733 15.7065 9.18453 15.659 9.09877 15.5741L4.42568 10.901C4.28865 10.764 4.25415 10.5561 4.33898 10.3827C4.7072 9.62953 5.11737 8.8875 5.55829 8.17531C6.14278 7.21887 6.8093 6.30439 7.53921 5.45516C10.3796 2.15705 13.4764 0.870625 15.5747 0.372833C16.4818 0.13792 17.4167 0.0195312 18.3536 0.0195312C18.7451 0.0195312 19.1413 0.0409717 19.531 0.0819883L19.5356 0.0829205L19.5403 0.0838527C19.7342 0.114615 19.8852 0.265631 19.916 0.459527C19.9383 0.599357 20.4343 3.92263 18.3163 7.84811L18.3145 7.8509L18.3126 7.8537C18.2287 7.99726 18.0889 8.07929 17.9304 8.07929C17.7701 8.07929 17.6172 7.99446 17.5323 7.85836C17.4512 7.72785 17.4456 7.56938 17.5174 7.42396L17.5193 7.42023L17.5212 7.4165C18.623 5.43838 19.1506 3.20391 19.0509 0.944269C18.9139 0.935879 18.7358 0.928421 18.5223 0.928421C17.5314 0.928421 15.97 1.07384 14.1559 1.76646C11.9336 2.61476 9.93682 4.05407 8.22251 6.04524C7.52336 6.85905 6.88574 7.73531 6.32736 8.64979L6.32642 8.65073C5.96194 9.23708 5.61516 9.85605 5.29355 10.4899L9.50707 14.7044C10.1428 14.3828 10.7609 14.036 11.3454 13.6725L11.3463 13.6715C12.2608 13.1122 13.137 12.4737 13.9508 11.7754C14.2538 11.5154 14.5605 11.2329 14.8625 10.9346L14.8644 10.9327C14.953 10.8479 15.0611 10.8022 15.1758 10.8022C15.3566 10.8022 15.5263 10.9178 15.599 11.0903C15.6698 11.2581 15.6335 11.4389 15.5011 11.5741L15.4992 11.576C15.1841 11.8882 14.8616 12.1865 14.5409 12.4615C13.6908 13.1914 12.7753 13.857 11.8208 14.4415C11.1095 14.8824 10.3675 15.2926 9.61521 15.6599C9.55368 15.6897 9.48657 15.7046 9.41945 15.7046H9.41758V15.7065Z">
	</path>
	<path d="M18.8701 5.88103C18.7498 5.88103 18.6361 5.83442 18.5503 5.74865L14.251 1.44937C14.1159 1.3142 14.0777 1.13336 14.1476 0.963696C14.2194 0.789376 14.3909 0.672852 14.5727 0.672852C14.6901 0.672852 14.8001 0.720394 14.8896 0.809884L19.1898 5.10917C19.3194 5.23874 19.3576 5.43171 19.2877 5.60137C19.2178 5.77103 19.0537 5.88103 18.8701 5.88103Z">
	</path>
	<path d="M13.275 9.15339C12.4612 9.15339 11.7062 8.74975 11.254 8.07298C10.8019 7.3962 10.718 6.54418 11.0294 5.79189C11.3407 5.04054 12.0035 4.49708 12.8015 4.3386C12.9572 4.30784 13.1166 4.29199 13.275 4.29199C13.5939 4.29199 13.9061 4.35352 14.2016 4.47563C14.4999 4.59868 14.7666 4.77673 14.994 5.00419C15.3352 5.34537 15.5654 5.77605 15.6596 6.24867C15.7537 6.72222 15.7062 7.2079 15.5207 7.65349C15.3361 8.09908 15.0266 8.47568 14.6258 8.74416C14.2249 9.0117 13.7579 9.15339 13.276 9.15339H13.275ZM13.276 5.19715C12.9236 5.19715 12.5806 5.32114 12.3084 5.54486C12.0362 5.76859 11.8497 6.08181 11.7807 6.42672C11.7127 6.77163 11.7668 7.13332 11.9327 7.44281C12.0986 7.75323 12.3699 7.99747 12.6943 8.13264C12.8798 8.20908 13.0756 8.24823 13.276 8.24823C13.7877 8.24823 14.2622 7.99467 14.5456 7.56959C14.7414 7.27688 14.829 6.92265 14.7945 6.57307C14.76 6.22257 14.6034 5.8935 14.3545 5.64461C14.0674 5.35656 13.6843 5.19809 13.2778 5.19809L13.276 5.19715Z">
	</path>
	<path d="M1.78356 8.97755C1.65118 8.97755 1.52534 8.91975 1.43958 8.81815C1.35381 8.71654 1.31653 8.58323 1.33797 8.45272C1.43958 7.82722 1.6689 7.24274 2.02033 6.71605C2.43236 6.08402 3.001 5.56385 3.66472 5.21148C4.30887 4.8703 5.03412 4.68945 5.7631 4.68945C6.59555 4.68945 7.41122 4.92343 8.12062 5.36529L8.12341 5.36716L8.12621 5.36902C8.29587 5.48275 8.36765 5.67944 8.30985 5.87054C8.25112 6.06444 8.07401 6.20054 7.88011 6.20054C7.80181 6.20054 7.72443 6.1791 7.65172 6.13808L7.64799 6.13622L7.6452 6.13436C7.07842 5.78105 6.42775 5.59368 5.7631 5.59368C5.18047 5.59368 4.60158 5.73817 4.08701 6.01037C3.55752 6.29096 3.10354 6.70672 2.77448 7.21291L2.77355 7.21477C2.6766 7.36112 2.5899 7.514 2.51533 7.67155C2.9777 7.51307 3.45964 7.4329 3.95371 7.4329C4.72836 7.4329 5.49369 7.63612 6.1658 8.02112C6.34945 8.12552 6.43428 8.32222 6.38207 8.52264C6.32801 8.72679 6.14996 8.87035 5.9486 8.87035C5.86937 8.87035 5.79199 8.84891 5.71835 8.80696C5.18141 8.50027 4.57175 8.33807 3.95371 8.33807C3.26854 8.33807 2.60295 8.53383 2.02686 8.90577C1.95415 8.95238 1.87025 8.97755 1.78449 8.97848L1.78356 8.97755Z">
	</path>
	<path d="M11.4749 18.6683C11.3099 18.6683 11.158 18.5778 11.0787 18.4334C10.9995 18.2879 11.006 18.1117 11.0946 17.9728C11.4479 17.4257 11.6436 16.7918 11.6613 16.1411C11.679 15.4904 11.5168 14.8472 11.1934 14.2823C11.1104 14.1359 11.1085 13.9737 11.1878 13.8367C11.2698 13.695 11.4302 13.6027 11.5942 13.6027C11.7546 13.6027 11.8944 13.6875 11.9783 13.8339C12.3279 14.4445 12.5292 15.139 12.5618 15.8419C12.587 16.3974 12.5068 16.9586 12.3269 17.4853C12.4854 17.4107 12.6383 17.325 12.7837 17.228L12.7856 17.2271C13.5723 16.7153 14.1167 15.9285 14.32 15.0122C14.5232 14.0968 14.3619 13.1553 13.8669 12.3592C13.7998 12.2585 13.7756 12.1326 13.8007 12.0143C13.8259 11.894 13.9005 11.7887 14.0049 11.7243C14.0767 11.6805 14.1587 11.6572 14.2426 11.6572C14.4048 11.6572 14.5539 11.7439 14.635 11.8847C14.9483 12.3881 15.1552 12.9381 15.2512 13.5179C15.3435 14.08 15.3277 14.6486 15.2046 15.208C15.0806 15.7663 14.856 16.2893 14.5344 16.7601C14.2025 17.2467 13.7821 17.6587 13.2843 17.9831C12.7576 18.3345 12.1731 18.5639 11.5485 18.6645C11.5252 18.6683 11.5019 18.6701 11.4777 18.6701L11.4749 18.6683Z">
	</path>
	<path d="M5.0986 18.9805C4.91496 18.9805 4.75089 18.8705 4.68098 18.7018C4.61106 18.5321 4.64928 18.3391 4.77886 18.2096L7.11773 15.8707C7.20629 15.7849 7.31443 15.7393 7.43002 15.7393C7.60993 15.7393 7.78052 15.8548 7.85324 16.0264C7.92408 16.1932 7.88866 16.3741 7.75722 16.5102L5.41834 18.8491C5.33445 18.932 5.21792 18.9805 5.0986 18.9805Z">
	</path>
	<path d="M1.82321 18.6278C1.63957 18.6278 1.4755 18.5178 1.40559 18.3481C1.33567 18.1785 1.37389 17.9855 1.50347 17.8559L3.83955 15.5198C3.92531 15.4313 4.03997 15.3828 4.16302 15.3828C4.28327 15.3828 4.397 15.4294 4.48276 15.5152C4.56946 15.6019 4.61607 15.7165 4.61513 15.8387C4.6142 15.9598 4.56573 16.0736 4.4781 16.1584L2.14295 18.4945C2.05812 18.5802 1.94439 18.6278 1.82321 18.6278Z">
	</path>
	<path d="M1.47071 15.3534C1.288 15.3534 1.12394 15.2443 1.05402 15.0747C0.984109 14.905 1.02233 14.7121 1.1519 14.5825L3.48798 12.2464C3.57375 12.1578 3.68841 12.1094 3.81239 12.1094C3.93264 12.1094 4.04637 12.156 4.13213 12.2417C4.21883 12.3284 4.26544 12.4431 4.2645 12.5652C4.26357 12.6864 4.2151 12.8001 4.12747 12.885L1.79046 15.221C1.70749 15.3049 1.59097 15.3534 1.47165 15.3534H1.47071Z">
	</path>
</svg>
